<?xml version="1.0" standalone="no"?>
<!DOCTYPE svg PUBLIC "-//W3C//DTD SVG 20010904//EN"
 "http://www.w3.org/TR/2001/REC-SVG-20010904/DTD/svg10.dtd">
<svg version="1.0" xmlns="http://www.w3.org/2000/svg"
 width="80.000000pt" height="80.000000pt" viewBox="0 0 80.000000 80.000000"
 preserveAspectRatio="xMidYMid meet">
<metadata>
Created by potrace 1.14, written by Peter Selinger 2001-2017
</metadata>
<g transform="translate(0.000000,80.000000) scale(0.100000,-0.100000)"
fill="#000000" stroke="none">
<path d="M251 785 c-56 -16 -110 -44 -131 -70 -9 -11 2 -10 46 6 81 28 178 23
205 -10 60 -73 -38 -247 -209 -372 -23 -17 -40 -35 -36 -40 3 -5 -4 -9 -14 -9
-11 0 -22 -7 -26 -15 -3 -8 -12 -15 -21 -15 -8 0 27 42 79 93 106 105 146 165
151 233 3 41 0 50 -25 75 -24 24 -34 28 -62 22 -48 -9 -130 -42 -151 -60 -22
-21 -54 -133 -56 -199 -5 -160 92 -318 237 -387 61 -29 76 -32 162 -32 87 0
101 3 161 32 85 42 169 124 169 165 0 39 -47 83 -109 102 -60 19 -276 14 -386
-8 -94 -19 -98 -19 -90 -6 3 6 13 10 21 10 25 0 236 104 300 147 105 72 182
169 197 250 6 29 3 34 -41 63 l-47 31 -7 -65 c-12 -118 -87 -218 -243 -321
-84 -55 -184 -109 -191 -102 -2 2 33 28 78 57 99 63 214 177 246 241 35 73 27
149 -21 178 -31 20 -125 23 -186 6z m-124 -511 c-3 -3 -12 -4 -19 -1 -8 3 -5
6 6 6 11 1 17 -2 13 -5z"/>
<path d="M719 579 c-37 -49 -146 -125 -256 -180 -57 -28 -103 -52 -103 -54 0
-3 6 -2 13 0 78 28 326 18 388 -16 11 -6 24 -8 27 -4 14 14 6 180 -12 233 -10
28 -21 52 -25 52 -5 0 -19 -14 -32 -31z"/>
</g>
</svg>
